HIERARCHY
ROOT joint_Root
{
	OFFSET 0.0 0.0 0.0
	CHANNELS 6 Xposition Yposition Zposition Zrotation Xrotation Yrotation 
	JOINT Hips
	{
		OFFSET 4.5925 91.4895 -427.239
		CHANNELS 6 Xposition Yposition Zposition Zrotation Xrotation Yrotation 
		JOINT Spine
		{
			OFFSET 15.7357 0.0 0.0
			CHANNELS 6 Xposition Yposition Zposition Zrotation Xrotation Yrotation 
			JOINT Chest
			{
				OFFSET 8.98455 -0.406207 0.0
				CHANNELS 6 Xposition Yposition Zposition Zrotation Xrotation Yrotation 
				JOINT Neck
				{
					OFFSET 16.3773 0.0 0.0
					CHANNELS 6 Xposition Yposition Zposition Zrotation Xrotation Yrotation 
					JOINT Head
					{
						OFFSET 6.45672 0.0 0.0
						CHANNELS 6 Xposition Yposition Zposition Zrotation Xrotation Yrotation 
						End Site
						{
							OFFSET 0.0 0.0 0.0
						}
					}
				}
				JOINT Shoulder_L
				{
					OFFSET 12.9942 -0.242716 4.98039
					CHANNELS 6 Xposition Yposition Zposition Zrotation Xrotation Yrotation 
					JOINT UpperArm_L
					{
						OFFSET 5.34809 0.0 0.0
						CHANNELS 6 Xposition Yposition Zposition Zrotation Xrotation Yrotation 
						JOINT LowerArm_L
						{
							OFFSET 24.3286 1.87007e-05 0.0
							CHANNELS 6 Xposition Yposition Zposition Zrotation Xrotation Yrotation 
							JOINT Hand_L
							{
								OFFSET 22.2916 0.0 0.0
								CHANNELS 6 Xposition Yposition Zposition Zrotation Xrotation Yrotation 
								End Site
								{
									OFFSET 0.0 0.0 0.0
								}
							}
						}
					}
				}
				JOINT Shoulder_R
				{
					OFFSET 12.9945 -0.242716 -4.98039
					CHANNELS 6 Xposition Yposition Zposition Zrotation Xrotation Yrotation 
					JOINT UpperArm_R
					{
						OFFSET -5.34813 0.0 0.0
						CHANNELS 6 Xposition Yposition Zposition Zrotation Xrotation Yrotation 
						JOINT LowerArm_R
						{
							OFFSET -24.3289 0.000322201 0.0
							CHANNELS 6 Xposition Yposition Zposition Zrotation Xrotation Yrotation 
							JOINT Hand_R
							{
								OFFSET -22.2915 -0.000108084 0.0
								CHANNELS 6 Xposition Yposition Zposition Zrotation Xrotation Yrotation 
								End Site
								{
									OFFSET 0.0 0.0 0.0
								}
							}
						}
					}
				}
			}
		}
		JOINT UpperLeg_L
		{
			OFFSET -2.19248 -6.46944 0.0
			CHANNELS 6 Xposition Yposition Zposition Zrotation Xrotation Yrotation 
			JOINT LowerLeg_L
			{
				OFFSET 39.0811 0.0 -1.23785e-05
				CHANNELS 6 Xposition Yposition Zposition Zrotation Xrotation Yrotation 
				JOINT Foot_L
				{
					OFFSET 40.9854 0.0 -1.26872e-05
					CHANNELS 6 Xposition Yposition Zposition Zrotation Xrotation Yrotation 
					JOINT Toes_L
					{
						OFFSET 11.7543 0.0 0.0
						CHANNELS 6 Xposition Yposition Zposition Zrotation Xrotation Yrotation 
						End Site
						{
							OFFSET 0.0 0.0 0.0
						}
					}
				}
			}
		}
		JOINT UpperLeg_R
		{
			OFFSET -2.19251 6.46944 0.0
			CHANNELS 6 Xposition Yposition Zposition Zrotation Xrotation Yrotation 
			JOINT LowerLeg_R
			{
				OFFSET -39.0811 -0.00228153 -0.0401928
				CHANNELS 6 Xposition Yposition Zposition Zrotation Xrotation Yrotation 
				JOINT Foot_R
				{
					OFFSET -40.9854 0.0 0.0
					CHANNELS 6 Xposition Yposition Zposition Zrotation Xrotation Yrotation 
					JOINT Toes_R
					{
						OFFSET -11.7543 0.0 0.0
						CHANNELS 6 Xposition Yposition Zposition Zrotation Xrotation Yrotation 
						End Site
						{
							OFFSET 0.0 0.0 0.0
						}
					}
				}
			}
		}
	}
}
MOTION
Frames:	7
Frame Time:	0.0333333
0.000000 0.000000 0.000000 0.000000 0.000000 -0.000000 131.827000 89.709200 137.540000 92.287000 -52.595600 3.921590 15.735700 0.000005 -0.000001 76.451700 81.987000 -77.271700 8.984550 -0.406207 -0.000000 7.800210 -3.739130 -1.383880 16.377300 -0.000001 -0.000001 1.851720 -12.982900 1.524250 6.456720 -0.000001 -0.000000 1.058750 -16.167600 5.747030 12.994200 -0.242716 4.980390 -90.607400 2.141330 -74.160800 5.348090 -0.000007 -0.000001 -53.305800 20.713900 -25.579400 24.328600 0.000019 0.000005 7.281710 12.486300 -30.583100 22.291600 -0.000001 0.000005 17.089300 5.185640 3.076760 12.994500 -0.242716 -4.980390 88.397100 9.036570 -79.898300 -5.348130 -0.000001 -0.000004 -68.768700 28.794200 -4.539250 -24.328900 0.000322 -0.000009 0.654552 2.068260 -17.593300 -22.291500 -0.000108 -0.000004 14.324800 5.345600 -1.245690 -2.192480 -6.469440 -0.000000 -178.962000 -22.632400 -7.850220 39.081100 -0.000007 -0.000012 -0.265234 0.388639 34.312800 40.985400 -0.000006 -0.000013 -2.405120 -4.488340 -74.002100 11.754300 -0.000000 0.000003 -0.000211 -0.001936 -16.650500 -2.192510 6.469440 -0.000001 -168.079000 29.268700 154.468000 -39.081100 -0.002282 -0.040193 -0.023187 0.046755 29.535200 -40.985400 0.000008 0.000006 15.158900 -5.509730 -56.634000 -11.754300 -0.000006 -0.000006 -0.011080 -0.111539 -21.118900
0.000000 0.000000 0.000000 0.000000 0.000000 -0.000000 130.978000 89.485900 139.180000 92.828500 -53.382000 4.019770 15.735700 0.000005 -0.000001 75.471900 82.113300 -76.074800 8.984550 -0.406207 -0.000000 7.495850 -3.940180 -0.946582 16.377300 -0.000001 -0.000001 1.729010 -12.862000 1.290330 6.456720 -0.000001 -0.000000 0.906249 -15.944100 5.200850 12.994200 -0.242716 4.980390 -90.647900 2.287820 -74.183700 5.348090 -0.000007 -0.000001 -54.105800 20.906700 -24.855600 24.328600 0.000019 0.000005 7.276970 12.026100 -31.502500 22.291600 -0.000001 0.000005 17.163400 5.196960 2.795430 12.994500 -0.242716 -4.980390 88.393700 8.998980 -79.835900 -5.348130 -0.000001 -0.000004 -68.626600 28.440200 -4.481400 -24.328900 0.000322 -0.000009 0.664265 2.200300 -16.828900 -22.291500 -0.000108 -0.000004 14.269100 5.341220 -1.115370 -2.192480 -6.469440 -0.000000 -179.427000 -23.465400 -6.612960 39.081100 -0.000007 -0.000012 -0.264695 0.392429 34.000300 40.985400 -0.000006 -0.000013 -2.481050 -4.530140 -75.304300 11.754300 -0.000000 0.000003 -0.000213 -0.001951 -16.651000 -2.192510 6.469440 -0.000001 -168.898000 27.627200 155.030000 -39.081100 -0.002282 -0.040193 -0.057410 0.102963 30.525200 -40.985400 0.000008 0.000006 16.616600 -8.333140 -59.556200 -11.754300 -0.000006 -0.000006 -0.011243 -0.112705 -21.166700
0.000000 0.000000 0.000000 0.000000 0.000000 -0.000000 130.019000 89.338200 140.829000 92.462100 -54.165400 3.165850 15.735700 0.000005 -0.000001 74.938900 82.364800 -75.022700 8.984550 -0.406207 -0.000000 6.989660 -3.953900 0.074176 16.377300 -0.000001 -0.000001 1.490460 -12.781200 1.027370 6.456720 -0.000001 -0.000000 0.866782 -15.657700 4.440930 12.994200 -0.242716 4.980390 -90.744700 2.618450 -74.117400 5.348090 -0.000007 -0.000001 -55.373300 21.753200 -23.634300 24.328600 0.000019 0.000005 7.520860 12.033400 -32.344000 22.291600 -0.000001 0.000005 16.974700 5.203390 2.633940 12.994500 -0.242716 -4.980390 88.356000 9.027240 -79.634100 -5.348130 -0.000001 -0.000004 -67.882100 28.362500 -4.704100 -24.328900 0.000322 -0.000009 0.600433 2.038520 -16.442400 -22.291500 -0.000108 -0.000004 14.233600 5.340040 -1.080280 -2.192480 -6.469440 -0.000000 -179.403000 -24.136300 -5.390190 39.081100 -0.000007 -0.000012 -0.256908 0.390744 33.324700 40.985400 -0.000006 -0.000013 -2.655470 -4.653250 -76.461400 11.754300 -0.000000 0.000003 -0.000186 -0.001740 -16.643300 -2.192510 6.469440 -0.000001 -170.260000 24.350300 154.813000 -39.081100 -0.002282 -0.040193 -0.105651 0.166010 33.275400 -40.985400 0.000008 0.000006 13.148000 -10.566000 -61.321800 -11.754300 -0.000006 -0.000006 -0.010479 -0.107181 -20.940600
0.000000 0.000000 0.000000 0.000000 0.000000 -0.000000 128.932000 89.258700 142.457000 92.179200 -55.336000 2.535770 15.735700 0.000005 -0.000001 75.434900 82.601300 -75.006000 8.984550 -0.406207 -0.000000 6.580560 -3.714200 1.070690 16.377300 -0.000001 -0.000001 1.404370 -12.654400 0.964976 6.456720 -0.000001 -0.000000 0.686490 -15.391000 3.782410 12.994200 -0.242716 4.980390 -90.750600 2.613530 -73.969400 5.348090 -0.000007 -0.000001 -57.689700 22.853200 -21.830100 24.328600 0.000019 0.000005 8.136210 12.702700 -33.030100 22.291600 -0.000001 0.000005 16.879300 5.205770 2.574030 12.994500 -0.242716 -4.980390 88.360300 8.955480 -79.580200 -5.348130 -0.000001 -0.000004 -66.936500 28.225900 -5.264420 -24.328900 0.000322 -0.000009 0.599469 2.052810 -16.310300 -22.291500 -0.000108 -0.000004 14.084800 5.338440 -1.033410 -2.192480 -6.469440 -0.000000 -179.812000 -24.740000 -4.680770 39.081100 -0.000007 -0.000012 0.025320 -0.038309 33.461700 40.985400 -0.000006 -0.000013 -0.095083 -6.043710 -76.690500 11.754300 -0.000000 0.000003 -1.682870 -2.165060 -16.308300 -2.192510 6.469440 -0.000001 -170.961000 22.904600 154.964000 -39.081100 -0.002282 -0.040193 -0.087222 0.128736 35.110700 -40.985400 0.000008 0.000006 12.623600 -10.874200 -63.000400 -11.754300 -0.000006 -0.000006 -0.008693 -0.093600 -20.385300
0.000000 0.000000 0.000000 0.000000 0.000000 -0.000000 127.595000 89.232100 144.024000 92.213000 -56.630300 2.665630 15.735700 0.000005 -0.000001 76.491500 82.720600 -75.711600 8.984550 -0.406207 -0.000000 6.422430 -3.399850 1.749220 16.377300 -0.000001 -0.000001 1.557300 -12.535600 1.164710 6.456720 -0.000001 -0.000000 0.713600 -15.192200 3.373020 12.994200 -0.242716 4.980390 -90.738000 2.550330 -73.856100 5.348090 -0.000007 -0.000001 -59.921300 24.434400 -19.732500 24.328600 0.000019 0.000005 8.248110 12.765100 -33.267100 22.291600 -0.000001 0.000005 16.689700 5.212070 2.414310 12.994500 -0.242716 -4.980390 88.323800 9.141040 -79.562700 -5.348130 -0.000001 -0.000004 -65.817500 28.194300 -6.191380 -24.328900 0.000322 -0.000009 0.622648 2.152810 -16.161200 -22.291500 -0.000108 -0.000004 14.549000 5.340880 -1.105310 -2.192480 -6.469440 -0.000000 -179.243000 -25.603400 -4.791060 39.081100 -0.000007 -0.000012 0.008101 -0.011020 36.315400 40.985400 -0.000006 -0.000013 -1.240550 -5.489510 -74.169900 11.754300 -0.000000 0.000003 -1.410330 -1.712670 -19.912800 -2.192510 6.469440 -0.000001 -172.036000 23.090700 156.035000 -39.081100 -0.002282 -0.040193 -0.140322 0.193591 36.568700 -40.985400 0.000008 0.000006 10.851400 -9.385440 -65.267300 -11.754300 -0.000006 -0.000006 -0.008005 -0.088076 -20.159600
0.000000 0.000000 0.000000 0.000000 0.000000 -0.000000 126.055000 89.312800 145.414000 92.147200 -58.050400 3.098860 15.735700 0.000005 -0.000001 77.816000 82.775900 -76.791100 8.984550 -0.406207 -0.000000 6.391920 -3.052650 2.218320 16.377300 -0.000001 -0.000001 1.892530 -12.500000 1.447670 6.456720 -0.000001 -0.000000 1.037350 -14.973300 3.138640 12.994200 -0.242716 4.980390 -90.834800 2.861030 -73.725900 5.348090 -0.000007 -0.000001 -61.352900 26.404200 -17.448700 24.328600 0.000019 0.000005 8.192880 12.798100 -33.022100 22.291600 -0.000001 0.000005 15.873600 5.225790 2.062180 12.994500 -0.242716 -4.980390 88.221900 9.626440 -79.483100 -5.348130 -0.000001 -0.000004 -64.758200 28.133000 -7.262690 -24.328900 0.000322 -0.000009 0.636689 2.207970 -16.114800 -22.291500 -0.000108 -0.000004 15.016100 5.342680 -1.158620 -2.192480 -6.469440 -0.000000 -178.188000 -26.446400 -5.562670 39.081100 -0.000007 -0.000012 0.033102 -0.037821 41.191900 40.985400 -0.000006 -0.000013 -2.386670 -4.681960 -71.140000 11.754300 -0.000000 0.000003 -0.018337 -0.157908 -23.025400 -2.192510 6.469440 -0.000001 -173.079000 23.483100 158.073000 -39.081100 -0.002282 -0.040193 -0.209930 0.282314 37.062000 -40.985400 0.000008 0.000006 9.361780 -7.731850 -67.146900 -11.754300 -0.000006 -0.000006 -0.007900 -0.087215 -20.124400
0.000000 0.000000 0.000000 0.000000 0.000000 -0.000000 124.536000 89.464800 146.687000 92.830600 -59.779500 4.473610 15.735700 0.000005 -0.000001 79.501300 82.713700 -78.467600 8.984550 -0.406207 -0.000000 6.592930 -2.657670 2.218510 16.377300 -0.000001 -0.000001 2.157630 -12.338600 1.825290 6.456720 -0.000001 -0.000000 1.328830 -14.800400 2.881750 12.994200 -0.242716 4.980390 -90.911500 3.071380 -73.461400 5.348090 -0.000007 -0.000001 -62.890000 28.023900 -15.068900 24.328600 0.000019 0.000005 8.629150 13.836000 -32.398900 22.291600 -0.000001 0.000005 14.557700 5.238710 1.727840 12.994500 -0.242716 -4.980390 88.207800 9.724750 -79.505700 -5.348130 -0.000001 -0.000004 -64.449800 27.863800 -8.537330 -24.328900 0.000322 -0.000009 0.600666 2.061280 -16.277500 -22.291500 -0.000108 -0.000004 15.272400 5.346760 -1.280380 -2.192480 -6.469440 -0.000000 -177.667000 -26.237900 -7.542390 39.081100 -0.000007 -0.000012 0.085864 -0.078464 47.577300 40.985400 -0.000006 -0.000013 -3.450410 -5.008690 -65.586600 11.754300 -0.000000 0.000003 -0.044996 -0.279455 -28.071800 -2.192510 6.469440 -0.000001 -174.620000 22.776200 160.586000 -39.081100 -0.002282 -0.040193 -0.247063 0.330602 37.135100 -40.985400 0.000008 0.000006 8.174080 -6.614860 -68.548100 -11.754300 -0.000006 -0.000006 -0.007226 -0.081593 -19.894900
